<?xml version="1.0" encoding="UTF-8" standalone="no"?>
<!DOCTYPE svg PUBLIC "-//W3C//DTD SVG 1.1//EN" "http://www.w3.org/Graphics/SVG/1.1/DTD/svg11.dtd">
<svg width="100%" height="100%" viewBox="0 0 1469 509" version="1.1" xmlns="http://www.w3.org/2000/svg" xmlns:xlink="http://www.w3.org/1999/xlink" xml:space="preserve" xmlns:serif="http://www.serif.com/" style="fill-rule:evenodd;clip-rule:evenodd;stroke-linejoin:round;stroke-miterlimit:2;">
    <g transform="matrix(2,0,0,2,0,-2466.99)">
        <g id="Artboard2" transform="matrix(1,0,0,1.06051,121.853,-90.0514)">
            <rect x="-121.853" y="1248.03" width="734.341" height="239.696" style="fill:none;"/>
            <g transform="matrix(1,0,0,0.942943,-233.375,1050.89)">
                <g transform="matrix(264.808,0,0,264.808,142.261,430.461)">
                    <path d="M0.289,-0.542C0.372,-0.542 0.436,-0.526 0.481,-0.487C0.526,-0.447 0.548,-0.387 0.548,-0.307L0.548,-0C0.548,-0 0.399,0.001 0.399,-0.106C0.399,-0.196 0.4,-0.314 0.399,-0.324C0.398,-0.344 0.389,-0.364 0.376,-0.379C0.365,-0.392 0.349,-0.405 0.332,-0.406C0.314,-0.407 0.226,-0.406 0.112,-0.406C0.003,-0.406 0.004,-0.542 0.004,-0.542C0.049,-0.544 0.054,-0.542 0.106,-0.542C0.148,-0.542 0.246,-0.542 0.289,-0.542Z" style="fill:rgb(250,250,250);fill-rule:nonzero;"/>
                </g>
                <g transform="matrix(264.808,0,0,264.808,305.236,429.461)">
                    <path d="M0.332,0.008C0.275,0.008 0.223,-0.004 0.178,-0.028C0.132,-0.051 0.096,-0.084 0.07,-0.126C0.045,-0.168 0.032,-0.216 0.032,-0.269C0.032,-0.322 0.045,-0.37 0.07,-0.412C0.096,-0.454 0.132,-0.487 0.178,-0.51C0.223,-0.534 0.275,-0.546 0.332,-0.546C0.389,-0.546 0.438,-0.534 0.481,-0.51C0.523,-0.487 0.554,-0.453 0.573,-0.409L0.452,-0.344C0.424,-0.393 0.384,-0.418 0.331,-0.418C0.29,-0.418 0.257,-0.405 0.23,-0.378C0.203,-0.351 0.19,-0.315 0.19,-0.269C0.19,-0.223 0.203,-0.187 0.23,-0.16C0.257,-0.133 0.29,-0.12 0.331,-0.12C0.384,-0.12 0.425,-0.145 0.452,-0.194L0.573,-0.128C0.554,-0.085 0.523,-0.052 0.481,-0.028C0.438,-0.004 0.389,0.008 0.332,0.008Z" style="fill:rgb(250,250,250);fill-rule:nonzero;"/>
                </g>
                <g transform="matrix(264.808,0,0,264.808,463.857,429.461)">
                    <path d="M0.419,-0.026C0.404,-0.015 0.385,-0.006 0.363,-0.001C0.34,0.005 0.317,0.008 0.292,0.008C0.228,0.008 0.179,-0.008 0.143,-0.041C0.109,-0.074 0.091,-0.122 0.091,-0.185L0.091,-0.406L0.008,-0.406L0.008,-0.526L0.091,-0.526L0.091,-0.657L0.247,-0.657L0.247,-0.526L0.381,-0.526L0.381,-0.406L0.247,-0.406L0.247,-0.187C0.247,-0.164 0.253,-0.147 0.265,-0.135C0.276,-0.122 0.293,-0.116 0.314,-0.116C0.339,-0.116 0.36,-0.123 0.377,-0.136L0.419,-0.026Z" style="fill:rgb(250,250,250);fill-rule:nonzero;"/>
                </g>
                <g transform="matrix(264.808,0,0,264.808,579.048,429.461)">
                    <path d="M0.072,-0.538L0.228,-0.538L0.228,-0L0.072,-0L0.072,-0.538ZM0.15,-0.613C0.121,-0.613 0.098,-0.621 0.08,-0.638C0.062,-0.655 0.053,-0.675 0.053,-0.7C0.053,-0.725 0.062,-0.745 0.08,-0.762C0.098,-0.779 0.121,-0.787 0.15,-0.787C0.179,-0.787 0.202,-0.779 0.22,-0.763C0.238,-0.747 0.247,-0.727 0.247,-0.703C0.247,-0.677 0.238,-0.656 0.22,-0.639C0.202,-0.622 0.179,-0.613 0.15,-0.613Z" style="fill:rgb(250,250,250);fill-rule:nonzero;"/>
                </g>
                <g transform="matrix(264.808,0,0,264.808,658.755,429.461)">
                    <path d="M0.328,0.008C0.271,0.008 0.221,-0.004 0.175,-0.028C0.131,-0.051 0.095,-0.084 0.07,-0.126C0.045,-0.168 0.032,-0.216 0.032,-0.269C0.032,-0.322 0.045,-0.37 0.07,-0.412C0.095,-0.454 0.131,-0.487 0.175,-0.51C0.221,-0.534 0.271,-0.546 0.328,-0.546C0.385,-0.546 0.435,-0.534 0.48,-0.51C0.525,-0.487 0.56,-0.454 0.585,-0.412C0.61,-0.37 0.623,-0.322 0.623,-0.269C0.623,-0.216 0.61,-0.168 0.585,-0.126C0.56,-0.084 0.525,-0.051 0.48,-0.028C0.435,-0.004 0.385,0.008 0.328,0.008Z" style="fill:rgb(250,250,250);fill-rule:nonzero;"/>
                </g>
                <g transform="matrix(0.552968,0,0,0.552968,117.596,200.7)">
                    <circle cx="120.404" cy="341.279" r="56.404" style="fill:rgb(250,250,250);"/>
                </g>
            </g>
        </g>
    </g>
</svg>
