<?xml version="1.0" encoding="UTF-8" standalone="no"?>
<!DOCTYPE svg PUBLIC "-//W3C//DTD SVG 1.1//EN" "http://www.w3.org/Graphics/SVG/1.1/DTD/svg11.dtd">
<svg width="100%" height="100%" viewBox="0 0 1403 349" version="1.1" xmlns="http://www.w3.org/2000/svg" xmlns:xlink="http://www.w3.org/1999/xlink" xml:space="preserve" xmlns:serif="http://www.serif.com/" style="fill-rule:evenodd;clip-rule:evenodd;stroke-linejoin:round;stroke-miterlimit:2;">
    <g transform="matrix(2,0,0,2,0,-2491.4)">
        <g id="Artboard2" transform="matrix(0.954896,0,0,0.725964,116.357,339.674)">
            <rect x="-121.853" y="1248.03" width="734.341" height="239.696" style="fill:none;"/>
            <g transform="matrix(0.363938,0,0,0.478706,-123.156,723.709)">
                <g transform="matrix(501.304,0,0,500,94.6005,1552.44)">
                    <path d="M0.318,0.016C0.26,0.016 0.203,0.009 0.149,-0.004C0.094,-0.017 0.048,-0.034 0.013,-0.056L0.089,-0.228C0.122,-0.209 0.16,-0.193 0.201,-0.182C0.242,-0.17 0.282,-0.164 0.32,-0.164C0.353,-0.164 0.376,-0.167 0.39,-0.173C0.404,-0.18 0.411,-0.189 0.411,-0.202C0.411,-0.217 0.402,-0.228 0.384,-0.235C0.365,-0.242 0.335,-0.25 0.293,-0.259C0.239,-0.27 0.194,-0.282 0.158,-0.296C0.122,-0.309 0.091,-0.33 0.064,-0.36C0.037,-0.389 0.024,-0.429 0.024,-0.48C0.024,-0.524 0.036,-0.564 0.061,-0.6C0.086,-0.636 0.123,-0.664 0.172,-0.685C0.221,-0.706 0.28,-0.716 0.35,-0.716C0.398,-0.716 0.445,-0.711 0.492,-0.701C0.538,-0.69 0.579,-0.675 0.614,-0.655L0.543,-0.484C0.474,-0.519 0.409,-0.536 0.348,-0.536C0.287,-0.536 0.257,-0.521 0.257,-0.492C0.257,-0.478 0.266,-0.468 0.284,-0.461C0.302,-0.454 0.332,-0.446 0.373,-0.438C0.426,-0.428 0.471,-0.417 0.508,-0.404C0.545,-0.391 0.577,-0.369 0.604,-0.34C0.63,-0.311 0.644,-0.271 0.644,-0.22C0.644,-0.176 0.632,-0.136 0.607,-0.101C0.582,-0.065 0.546,-0.037 0.497,-0.016C0.448,0.005 0.388,0.016 0.318,0.016Z" style="fill:rgb(55,60,78);fill-rule:nonzero;"/>
                </g>
                <g transform="matrix(501.304,0,0,500,423.957,1552.44)">
                    <path d="M0.632,-0.274C0.632,-0.271 0.631,-0.253 0.629,-0.221L0.249,-0.221C0.257,-0.2 0.27,-0.185 0.289,-0.173C0.308,-0.163 0.331,-0.157 0.359,-0.157C0.383,-0.157 0.403,-0.16 0.42,-0.166C0.436,-0.172 0.454,-0.182 0.473,-0.197L0.591,-0.078C0.538,-0.019 0.458,0.01 0.352,0.01C0.286,0.01 0.228,-0.002 0.178,-0.027C0.128,-0.051 0.089,-0.085 0.062,-0.128C0.035,-0.171 0.021,-0.22 0.021,-0.274C0.021,-0.329 0.035,-0.378 0.062,-0.421C0.089,-0.464 0.126,-0.497 0.172,-0.521C0.22,-0.545 0.272,-0.557 0.331,-0.557C0.386,-0.557 0.437,-0.546 0.483,-0.524C0.528,-0.502 0.565,-0.47 0.592,-0.427C0.619,-0.384 0.632,-0.333 0.632,-0.274ZM0.333,-0.403C0.31,-0.403 0.29,-0.397 0.275,-0.384C0.26,-0.371 0.25,-0.353 0.245,-0.33L0.421,-0.33C0.416,-0.353 0.406,-0.371 0.391,-0.384C0.376,-0.397 0.356,-0.403 0.333,-0.403Z" style="fill:rgb(55,60,78);fill-rule:nonzero;"/>
                </g>
                <g transform="matrix(501.304,0,0,500,743.809,1552.44)">
                    <path d="M0.295,-0.557C0.391,-0.557 0.464,-0.536 0.515,-0.493C0.566,-0.45 0.591,-0.383 0.591,-0.294L0.591,-0L0.381,-0L0.381,-0.072C0.355,-0.017 0.303,0.01 0.226,0.01C0.183,0.01 0.146,0.002 0.116,-0.013C0.085,-0.028 0.062,-0.048 0.047,-0.074C0.031,-0.099 0.023,-0.128 0.023,-0.16C0.023,-0.214 0.044,-0.255 0.085,-0.283C0.126,-0.311 0.189,-0.325 0.273,-0.325L0.364,-0.325C0.357,-0.368 0.322,-0.389 0.261,-0.389C0.236,-0.389 0.211,-0.385 0.186,-0.378C0.161,-0.37 0.139,-0.359 0.121,-0.346L0.049,-0.495C0.08,-0.514 0.118,-0.53 0.163,-0.541C0.207,-0.552 0.251,-0.557 0.295,-0.557ZM0.294,-0.126C0.31,-0.126 0.324,-0.13 0.337,-0.139C0.35,-0.148 0.359,-0.161 0.365,-0.178L0.365,-0.216L0.309,-0.216C0.263,-0.216 0.24,-0.201 0.24,-0.17C0.24,-0.157 0.245,-0.147 0.255,-0.139C0.264,-0.13 0.277,-0.126 0.294,-0.126Z" style="fill:rgb(55,60,78);fill-rule:nonzero;"/>
                </g>
                <g transform="matrix(501.304,0,0,500,1064.14,1552.44)">
                    <path d="M0.265,-0.488C0.305,-0.534 0.364,-0.557 0.442,-0.557L0.442,-0.357C0.424,-0.36 0.407,-0.361 0.392,-0.361C0.315,-0.361 0.276,-0.322 0.276,-0.243L0.276,-0L0.05,-0L0.05,-0.547L0.265,-0.547L0.265,-0.488Z" style="fill:rgb(55,60,78);fill-rule:nonzero;"/>
                </g>
                <g transform="matrix(501.304,0,0,500,1290.24,1552.44)">
                    <path d="M0.344,0.01C0.282,0.01 0.227,-0.002 0.178,-0.026C0.129,-0.05 0.09,-0.084 0.063,-0.127C0.035,-0.17 0.021,-0.219 0.021,-0.274C0.021,-0.329 0.035,-0.378 0.063,-0.421C0.09,-0.464 0.129,-0.497 0.178,-0.521C0.227,-0.545 0.282,-0.557 0.344,-0.557C0.411,-0.557 0.468,-0.543 0.515,-0.514C0.562,-0.485 0.595,-0.446 0.613,-0.395L0.438,-0.309C0.417,-0.357 0.385,-0.381 0.343,-0.381C0.316,-0.381 0.294,-0.372 0.277,-0.353C0.259,-0.334 0.25,-0.308 0.25,-0.274C0.25,-0.239 0.259,-0.213 0.277,-0.194C0.294,-0.175 0.316,-0.166 0.343,-0.166C0.385,-0.166 0.417,-0.19 0.438,-0.238L0.613,-0.152C0.595,-0.101 0.562,-0.062 0.515,-0.033C0.468,-0.004 0.411,0.01 0.344,0.01Z" style="fill:rgb(55,60,78);fill-rule:nonzero;"/>
                </g>
                <g transform="matrix(501.304,0,0,500,1598.54,1552.44)">
                    <path d="M0.43,-0.557C0.497,-0.557 0.552,-0.537 0.593,-0.496C0.633,-0.455 0.654,-0.394 0.654,-0.312L0.654,-0L0.428,-0L0.428,-0.273C0.428,-0.336 0.406,-0.367 0.361,-0.367C0.336,-0.367 0.315,-0.358 0.3,-0.341C0.284,-0.323 0.276,-0.295 0.276,-0.257L0.276,-0L0.05,-0L0.05,-0.742L0.276,-0.742L0.276,-0.503C0.318,-0.539 0.369,-0.557 0.43,-0.557Z" style="fill:rgb(55,60,78);fill-rule:nonzero;"/>
                </g>
            </g>
        </g>
    </g>
</svg>
