<?xml version="1.0" encoding="UTF-8" standalone="no"?>
<!DOCTYPE svg PUBLIC "-//W3C//DTD SVG 1.1//EN" "http://www.w3.org/Graphics/SVG/1.1/DTD/svg11.dtd">
<svg width="100%" height="100%" viewBox="0 0 341 341" version="1.1" xmlns="http://www.w3.org/2000/svg" xmlns:xlink="http://www.w3.org/1999/xlink" xml:space="preserve" xmlns:serif="http://www.serif.com/" style="fill-rule:evenodd;clip-rule:evenodd;stroke-linejoin:round;stroke-miterlimit:2;">
    <g transform="matrix(2,0,0,2,-500,-1492)">
        <g id="Artboard3" transform="matrix(1,0,0,1,-0.0237998,-0.813204)">
            <rect x="250.024" y="746.813" width="170.141" height="170.141" style="fill:none;"/>
            <g transform="matrix(1,0,0,1,4.60562,2.37746)">
                <g transform="matrix(264.808,0,0,264.808,257.384,901.344)">
                    <path d="M0.289,-0.542C0.372,-0.542 0.436,-0.526 0.481,-0.487C0.526,-0.447 0.548,-0.387 0.548,-0.307L0.548,-0C0.548,-0 0.399,0.001 0.399,-0.106C0.399,-0.196 0.4,-0.314 0.399,-0.324C0.398,-0.344 0.389,-0.364 0.376,-0.379C0.365,-0.392 0.349,-0.405 0.332,-0.406C0.314,-0.407 0.226,-0.406 0.112,-0.406C0.003,-0.406 0.004,-0.542 0.004,-0.542C0.049,-0.544 0.054,-0.542 0.106,-0.542C0.148,-0.542 0.246,-0.542 0.289,-0.542Z" style="fill:rgb(255,0,88);fill-rule:nonzero;"/>
                </g>
                <g transform="matrix(0.552968,0,0,0.552968,232.719,671.584)">
                    <circle cx="120.404" cy="341.279" r="56.404" style="fill:rgb(255,0,88);"/>
                </g>
            </g>
        </g>
    </g>
</svg>
